# xmcd
# 
# Track frame offsets:
#     150
#     11254
#     35502
#     40924
#     79671
#     81924
#     121428
#     133258
#     162094
#     171383
#     193840
#     203407
#     223919
#     226237
#     250109
#     252526
#     277218
# 
# Disc length: 4062
# 
# Revision: 1
# Processed by: cddbd v1.5.2PL0 Copyright (c) Steve Scherf et al.
# Submitted via: fre:ac v1.0.17
# 
DISCID=f30fdc11
DTITLE=Bodek Janke - global dance kulture
DYEAR=2008
DGENRE=Jazz
TTITLE0=Introduction
TTITLE1=Smile For You
TTITLE2=Transition I
TTITLE3=Taniec
TTITLE4=Transition II
TTITLE5=Can Askta
TTITLE6=Transition III
TTITLE7=Ahimsa
TTITLE8=Transition IV
TTITLE9=Na Skalkach
TTITLE10=Transition V
TTITLE11=Fruitfly
TTITLE12=Transition VI
TTITLE13=Merengovsky
TTITLE14=Transition VII
TTITLE15=Boomboom Multikulti
TTITLE16=Outroduction
EXTD=YEAR: 2008
EXTT0=
EXTT1=
EXTT2=
EXTT3=
EXTT4=
EXTT5=
EXTT6=
EXTT7=
EXTT8=
EXTT9=
EXTT10=
EXTT11=
EXTT12=
EXTT13=
EXTT14=
EXTT15=
EXTT16=
PLAYORDER=
